# This file uses centimeters as units for non-parametric coordinates.

mtllib HardHat.mtl
g default
v -7.899050 0.242593 -0.725703
v -8.609913 1.472291 -1.455667
v -8.982426 1.617693 -2.560112
v -8.609913 0.939548 -3.443889
v -7.899050 -0.490116 -3.460208
v 2.731839 0.455783 -0.782827
v 3.249575 1.474388 -1.456229
v 3.605484 1.619791 -2.560674
v 3.249575 0.941646 -3.444451
v 2.731839 -0.276925 -3.517332
v -7.899050 -0.123761 -2.092955
v 2.731839 0.089429 -2.150080
v 0.074954 1.546552 -4.005932
v 0.155470 2.817030 -3.946959
v 0.155470 3.495176 -3.063182
v 0.155470 3.349773 -1.958737
v 0.074954 2.279261 -1.271426
v -2.766552 2.053135 -4.141670
v -2.766325 3.305465 -4.077834
v -2.766325 3.983611 -3.194058
v -2.766325 3.838208 -2.089612
v -2.766552 2.785844 -1.407165
v -5.608058 1.546552 -4.005932
v -5.688118 2.797469 -3.941717
v -5.688118 3.475615 -3.057940
v -5.688118 3.330211 -1.953495
v -5.608058 2.279261 -1.271426
v -7.899050 0.242593 0.725703
v -8.609913 1.472291 1.455667
v -8.982426 1.617693 2.560112
v -8.609913 0.939548 3.443889
v -7.899050 -0.490116 3.460208
v 2.731839 0.455783 0.782827
v 3.249575 1.474388 1.456229
v 3.605484 1.619791 2.560674
v 3.249575 0.941646 3.444451
v 2.731839 -0.276925 3.517332
v -7.899050 -0.123761 2.092955
v 2.731839 0.089429 2.150080
v 0.074954 1.546552 4.005932
v 0.155470 2.817030 3.946959
v 0.155470 3.495176 3.063182
v 0.155470 3.349773 1.958737
v 0.074954 2.279261 1.271426
v -2.766552 2.053135 4.141670
v -2.766325 3.305465 4.077834
v -2.766325 3.983611 3.194058
v -2.766325 3.838208 2.089612
v -2.766552 2.785844 1.407165
v -5.608058 1.546552 4.005932
v -5.688118 2.797469 3.941717
v -5.688118 3.475615 3.057940
v -5.688118 3.330211 1.953495
v -5.608058 2.279261 1.271426
v 3.114989 -3.801718 -5.587076
v -2.472087 -3.801718 -7.901318
v -8.059162 -3.801718 -5.587076
v -10.373405 -3.801718 0.000000
v -8.059162 -3.801718 5.587076
v -2.472087 -3.801718 7.901319
v 3.114990 -3.801718 5.587076
v 5.429233 -3.801718 0.000000
v 2.689698 -1.005018 -5.161785
v -2.472087 -1.005018 -7.299866
v -7.633871 -1.005018 -5.161785
v -9.771953 -1.005018 0.000000
v -7.633871 -1.005018 5.161785
v -2.472087 -1.005018 7.299866
v 2.689698 -1.005018 5.161785
v 4.827780 -1.005018 0.000000
v 1.478572 1.365910 -3.950659
v -2.472087 1.365910 -5.587076
v -6.422746 1.365910 -3.950659
v -8.059162 1.365910 0.000000
v -6.422746 1.365910 3.950659
v -2.472087 1.365910 5.587076
v 1.478573 1.365910 3.950659
v 3.114990 1.365910 0.000000
v -0.334005 2.950113 -2.138082
v -2.472087 2.950113 -3.023704
v -4.610168 2.950113 -2.138082
v -5.495790 2.950113 0.000000
v -4.610168 2.950113 2.138082
v -2.472087 2.950113 3.023704
v -0.334005 2.950113 2.138082
v 0.551617 2.950113 0.000000
v -2.472087 3.506411 0.000000
v 8.429924 -3.801718 -4.093003
v 4.949288 -3.801718 -6.872847
v 4.949288 -3.801718 6.872847
v 8.429924 -3.801718 4.093003
v 9.411249 -3.801718 0.000000
v 8.429924 -2.994270 -4.093003
v 4.949288 -2.335323 -6.872847
v 4.949288 -2.335323 6.872847
v 8.429924 -2.994270 4.093003
v 9.411249 -2.994270 0.000000
v -1.736563 -1.291847 0.000000
v -1.736563 -3.801718 -6.849722
v -1.736563 -1.291847 -6.849722
v -1.736563 -3.801718 6.849722
v -1.736563 -1.291847 6.849722
v -1.736563 -3.801718 0.000000
vt 0.381641 0.706613
vt 0.353144 0.668480
vt 0.392353 0.668478
vt 0.353134 0.718424
vt 0.324625 0.706618
vt 0.313936 0.668483
vt 0.320590 0.614574
vt 0.359799 0.614579
vt 0.331300 0.646657
vt 0.359807 0.658469
vt 0.388317 0.646664
vt 0.399007 0.614584
vt 0.331847 0.585139
vt 0.321137 0.547003
vt 0.360345 0.547008
vt 0.360353 0.596952
vt 0.388863 0.585147
vt 0.399554 0.547013
vt 0.497609 0.534130
vt 0.486898 0.566213
vt 0.458400 0.534135
vt 0.458391 0.578025
vt 0.429882 0.566221
vt 0.419191 0.534140
vt 0.819137 0.363756
vt 0.819137 0.208995
vt 0.896605 0.208995
vt 0.896605 0.351976
vt 0.819137 0.054234
vt 0.896605 0.066014
vt 0.962280 0.208995
vt 0.962280 0.318428
vt 0.962280 0.099562
vt 1.006162 0.208995
vt 1.006162 0.268220
vt 1.006162 0.149770
vt 0.618693 0.356499
vt 0.618693 0.201738
vt 0.696161 0.201738
vt 0.696161 0.344719
vt 0.618693 0.046976
vt 0.696161 0.058757
vt 0.761835 0.201738
vt 0.761835 0.311170
vt 0.761835 0.092305
vt 0.805717 0.201738
vt 0.805717 0.260962
vt 0.805717 0.142513
vt 0.416622 0.993081
vt 0.303247 0.993081
vt 0.303247 0.970714
vt 0.416622 0.970714
vt 0.189871 0.993081
vt 0.189871 0.970714
vt 0.493624 0.993081
vt 0.493624 0.952462
vt 0.112869 0.993081
vt 0.112869 0.952462
vt 0.661770 0.928235
vt 0.742380 0.943709
vt 0.741321 0.973240
vt 0.650069 0.959451
vt 0.822254 0.946418
vt 0.822254 0.977011
vt 0.741321 0.997721
vt 0.660387 0.983931
vt 0.740038 0.922253
vt 0.822248 0.927514
vt 0.903187 0.942792
vt 0.903187 0.973386
vt 0.822254 1.001491
vt 0.900957 0.923754
vt 0.988894 0.928873
vt 0.998752 0.959466
vt 0.903187 0.997866
vt 0.974552 0.910220
vt 0.988894 0.983947
vt 0.981611 0.827889
vt 0.993312 0.859105
vt 0.902060 0.872895
vt 0.901001 0.843364
vt 0.982994 0.883586
vt 0.902060 0.897376
vt 0.821127 0.876666
vt 0.821127 0.846073
vt 0.821127 0.901146
vt 0.740194 0.873040
vt 0.740194 0.842448
vt 0.903343 0.821908
vt 0.821133 0.827169
vt 0.740194 0.897521
vt 0.644629 0.859121
vt 0.654487 0.828528
vt 0.742424 0.823409
vt 0.654487 0.883602
vt 0.668829 0.809875
vt 0.106036 0.694486
vt 0.165260 0.669954
vt 0.165260 0.753710
vt 0.055827 0.644277
vt 0.165260 0.598949
vt 0.224485 0.694486
vt 0.081504 0.753710
vt 0.022279 0.610729
vt 0.165260 0.551505
vt 0.274693 0.644277
vt 0.249016 0.753710
vt 0.106036 0.812935
vt 0.308241 0.610729
vt 0.224485 0.812935
vt 0.165260 0.837466
vt 0.165260 0.908472
vt 0.055827 0.863143
vt 0.274693 0.863143
vt 0.165260 0.955916
vt 0.022279 0.896691
vt 0.308241 0.896691
vt 0.129648 0.489379
vt 0.012917 0.343219
vt 0.301522 0.062466
vt 0.013888 0.062466
vt 0.301522 0.530587
vt 0.473396 0.489379
vt 0.590128 0.343219
vt 0.589157 0.062466
vt 0.799902 0.388707
vt 0.688158 0.666383
vt 0.612223 0.571334
vt 0.799947 0.693168
vt 0.612828 0.388735
vt 0.911728 0.666350
vt 0.987635 0.571279
vt 0.986977 0.388680
vt 0.668794 0.894410
vt 0.968997 0.750721
vt 0.888063 0.802185
vt 0.885846 0.767535
vt 0.949306 0.711119
vt 0.807130 0.816256
vt 0.807136 0.781567
vt 0.726197 0.802727
vt 0.728427 0.767535
vt 0.640490 0.750779
vt 0.654831 0.717025
vt 0.974586 0.794063
vt 0.640490 0.694101
vt 0.660181 0.654500
vt 0.723641 0.710915
vt 0.721424 0.745565
vt 0.802351 0.724947
vt 0.802357 0.759637
vt 0.881060 0.710915
vt 0.883290 0.746107
vt 0.954655 0.660405
vt 0.968997 0.694159
vt 0.552486 0.942960
vt 0.552486 0.784786
vt 0.631663 0.784785
vt 0.631663 0.930919
vt 0.552486 0.626611
vt 0.631663 0.638651
vt 0.470055 0.941467
vt 0.470055 0.783292
vt 0.549231 0.783292
vt 0.549231 0.929426
vt 0.470055 0.625118
vt 0.549231 0.637158
vt 0.340346 0.743292
vt 0.384250 0.743292
vt 0.384250 0.943466
vt 0.309105 0.943466
vt 0.391471 0.743292
vt 0.435375 0.743292
vt 0.466616 0.943466
vt 0.391471 0.943466
vn -0.179852 0.471984 0.863067
vn -0.135923 0.498131 0.856382
vn -0.110072 0.512805 0.851419
vn -0.179852 0.471984 0.863067
vn -0.480347 0.855439 0.193627
vn -0.358062 0.918102 0.169943
vn -0.330970 0.929203 0.164442
vn -0.480347 0.855438 0.193627
vn -0.480347 0.644018 -0.595405
vn -0.330970 0.722492 -0.607012
vn -0.358062 0.710128 -0.606226
vn -0.480347 0.644018 -0.595405
vn -0.179412 -0.023389 -0.983496
vn -0.109799 0.017690 -0.993796
vn -0.135593 0.002532 -0.990761
vn -0.179412 -0.023389 -0.983496
vn -0.867333 -0.461115 0.187367
vn -0.877312 -0.463567 0.124213
vn -0.888543 -0.443160 0.118744
vn -0.857165 -0.497497 0.133281
vn -0.867318 -0.493045 0.068312
vn -0.888543 -0.443160 0.118744
vn 0.912936 -0.394197 0.105625
vn 0.897165 -0.426645 0.114322
vn 0.889985 -0.420755 0.175760
vn 0.875707 -0.466397 0.124943
vn 0.889968 -0.452295 0.058186
vn 0.912936 -0.394197 0.105625
vn 0.106831 0.030972 -0.993795
vn 0.175973 0.009849 -0.984346
vn 0.175974 0.009849 -0.984346
vn 0.130151 0.023886 -0.991206
vn 0.323864 0.725866 -0.606820
vn 0.466313 0.653975 -0.595708
vn 0.466313 0.653975 -0.595708
vn 0.349265 0.714685 -0.606003
vn 0.349265 0.921937 0.167472
vn 0.466313 0.864214 0.188911
vn 0.466313 0.864213 0.188911
vn 0.323864 0.932028 0.162589
vn 0.130464 0.516881 0.846057
vn 0.176397 0.501251 0.847131
vn 0.176397 0.501251 0.847131
vn 0.107094 0.524330 0.844754
vn -0.000404 0.048093 -0.998843
vn -0.000542 0.048096 -0.998843
vn -0.003064 0.793350 -0.608759
vn -0.003328 0.793349 -0.608758
vn -0.003328 0.991439 0.130525
vn -0.003064 0.991440 0.130526
vn -0.000543 0.541728 0.840554
vn -0.000405 0.541725 0.840556
vn -0.179852 0.471984 -0.863067
vn -0.179852 0.471984 -0.863067
vn -0.110072 0.512805 -0.851419
vn -0.135923 0.498131 -0.856382
vn -0.480347 0.855439 -0.193627
vn -0.480347 0.855439 -0.193627
vn -0.330969 0.929203 -0.164442
vn -0.358062 0.918102 -0.169943
vn -0.480347 0.644018 0.595406
vn -0.480347 0.644018 0.595406
vn -0.358062 0.710128 0.606226
vn -0.330970 0.722492 0.607012
vn -0.179412 -0.023389 0.983496
vn -0.179412 -0.023389 0.983496
vn -0.135593 0.002532 0.990761
vn -0.109799 0.017690 0.993796
vn -0.867333 -0.461115 -0.187367
vn -0.888543 -0.443160 -0.118744
vn -0.877312 -0.463567 -0.124213
vn -0.857165 -0.497497 -0.133281
vn -0.867318 -0.493044 -0.068312
vn -0.888543 -0.443160 -0.118744
vn 0.912936 -0.394198 -0.105625
vn 0.889985 -0.420755 -0.175760
vn 0.897165 -0.426645 -0.114322
vn 0.875707 -0.466397 -0.124943
vn 0.889968 -0.452295 -0.058186
vn 0.912936 -0.394197 -0.105625
vn 0.106831 0.030972 0.993795
vn 0.130151 0.023886 0.991207
vn 0.175974 0.009849 0.984346
vn 0.175974 0.009849 0.984346
vn 0.323864 0.725866 0.606820
vn 0.349265 0.714685 0.606003
vn 0.466313 0.653975 0.595708
vn 0.466313 0.653975 0.595708
vn 0.349265 0.921937 -0.167472
vn 0.323864 0.932028 -0.162589
vn 0.466313 0.864213 -0.188911
vn 0.466313 0.864213 -0.188911
vn 0.130464 0.516881 -0.846057
vn 0.107094 0.524330 -0.844754
vn 0.176397 0.501251 -0.847131
vn 0.176397 0.501251 -0.847131
vn -0.000404 0.048093 0.998843
vn -0.000542 0.048096 0.998843
vn -0.003064 0.793350 0.608759
vn -0.003328 0.793349 0.608758
vn -0.003328 0.991439 -0.130525
vn -0.003064 0.991440 -0.130526
vn -0.000543 0.541728 -0.840554
vn -0.000405 0.541725 -0.840555
vn 0.375346 0.194878 -0.906166
vn 0.375346 0.194878 -0.906166
vn 0.375346 0.194878 -0.906166
vn 0.375346 0.194878 -0.906166
vn -0.375346 0.194878 -0.906166
vn -0.375346 0.194878 -0.906166
vn -0.375346 0.194878 -0.906166
vn -0.375346 0.194878 -0.906166
vn -0.906166 0.194879 -0.375346
vn -0.906166 0.194879 -0.375346
vn -0.906166 0.194879 -0.375346
vn -0.906166 0.194879 -0.375346
vn -0.906166 0.194878 0.375346
vn -0.906166 0.194878 0.375346
vn -0.906166 0.194878 0.375346
vn -0.906166 0.194878 0.375346
vn -0.375347 0.194878 0.906166
vn -0.375347 0.194878 0.906166
vn -0.375347 0.194878 0.906166
vn -0.375347 0.194878 0.906166
vn 0.375346 0.194878 0.906166
vn 0.375346 0.194878 0.906166
vn 0.375346 0.194878 0.906166
vn 0.375346 0.194878 0.906166
vn 0.906166 0.194878 0.375346
vn 0.906166 0.194878 0.375346
vn 0.906166 0.194878 0.375346
vn 0.906166 0.194878 0.375346
vn 0.906166 0.194878 -0.375347
vn 0.906166 0.194878 -0.375347
vn 0.906166 0.194878 -0.375347
vn 0.906166 0.194878 -0.375347
vn 0.318301 0.555136 -0.768446
vn 0.318301 0.555136 -0.768446
vn 0.318301 0.555136 -0.768446
vn 0.318301 0.555136 -0.768446
vn -0.318301 0.555136 -0.768446
vn -0.318301 0.555136 -0.768446
vn -0.318301 0.555136 -0.768446
vn -0.318301 0.555136 -0.768446
vn -0.768446 0.555136 -0.318301
vn -0.768446 0.555136 -0.318301
vn -0.768446 0.555136 -0.318301
vn -0.768446 0.555136 -0.318301
vn -0.768446 0.555135 0.318301
vn -0.768446 0.555135 0.318301
vn -0.768446 0.555135 0.318301
vn -0.768446 0.555135 0.318301
vn -0.318301 0.555136 0.768446
vn -0.318301 0.555136 0.768446
vn -0.318301 0.555136 0.768446
vn -0.318301 0.555136 0.768446
vn 0.318301 0.555136 0.768446
vn 0.318301 0.555136 0.768446
vn 0.318301 0.555136 0.768446
vn 0.318301 0.555136 0.768446
vn 0.768446 0.555136 0.318301
vn 0.768446 0.555136 0.318301
vn 0.768446 0.555136 0.318301
vn 0.768446 0.555136 0.318301
vn 0.768446 0.555136 -0.318301
vn 0.768446 0.555136 -0.318301
vn 0.768446 0.555136 -0.318301
vn 0.768446 0.555136 -0.318301
vn 0.212774 0.831179 -0.513681
vn 0.212774 0.831179 -0.513681
vn 0.212774 0.831179 -0.513681
vn 0.212774 0.831179 -0.513681
vn -0.212774 0.831179 -0.513681
vn -0.212774 0.831179 -0.513681
vn -0.212774 0.831179 -0.513681
vn -0.212774 0.831179 -0.513681
vn -0.513682 0.831179 -0.212774
vn -0.513682 0.831179 -0.212774
vn -0.513682 0.831179 -0.212774
vn -0.513681 0.831179 -0.212774
vn -0.513682 0.831179 0.212774
vn -0.513682 0.831179 0.212774
vn -0.513681 0.831179 0.212774
vn -0.513682 0.831179 0.212774
vn -0.212774 0.831179 0.513681
vn -0.212774 0.831179 0.513681
vn -0.212774 0.831179 0.513681
vn -0.212774 0.831179 0.513681
vn 0.212774 0.831179 0.513681
vn 0.212774 0.831179 0.513681
vn 0.212774 0.831179 0.513681
vn 0.212774 0.831179 0.513681
vn 0.513681 0.831179 0.212774
vn 0.513681 0.831179 0.212774
vn 0.513681 0.831179 0.212774
vn 0.513681 0.831179 0.212774
vn 0.513681 0.831179 -0.212774
vn 0.513681 0.831179 -0.212774
vn 0.513681 0.831179 -0.212774
vn 0.513681 0.831179 -0.212774
vn 0.074739 0.980743 -0.180436
vn 0.074739 0.980743 -0.180436
vn 0.074739 0.980743 -0.180436
vn -0.074739 0.980743 -0.180436
vn -0.074739 0.980743 -0.180436
vn -0.074739 0.980743 -0.180436
vn -0.180436 0.980743 -0.074739
vn -0.180436 0.980743 -0.074739
vn -0.180436 0.980743 -0.074739
vn -0.180436 0.980743 0.074739
vn -0.180436 0.980743 0.074739
vn -0.180436 0.980743 0.074739
vn -0.074739 0.980743 0.180436
vn -0.074739 0.980743 0.180436
vn -0.074739 0.980743 0.180436
vn 0.074739 0.980743 0.180436
vn 0.074739 0.980743 0.180436
vn 0.074739 0.980743 0.180436
vn 0.180436 0.980743 0.074739
vn 0.180436 0.980743 0.074739
vn 0.180436 0.980743 0.074739
vn 0.180436 0.980743 -0.074739
vn 0.180436 0.980743 -0.074739
vn 0.180436 0.980743 -0.074739
vn 0.624056 0.000000 -0.781379
vn 0.624056 0.000000 -0.781379
vn 0.624056 0.000000 -0.781379
vn 0.624056 0.000000 -0.781379
vn 0.624056 0.000000 0.781379
vn 0.624056 0.000000 0.781379
vn 0.624056 0.000000 0.781380
vn 0.624056 0.000000 0.781379
vn 0.972441 0.000000 0.233149
vn 0.972441 0.000000 0.233149
vn 0.972441 0.000000 0.233149
vn 0.972441 0.000000 0.233149
vn 0.972441 0.000000 -0.233149
vn 0.972441 0.000000 -0.233149
vn 0.972441 0.000000 -0.233149
vn 0.972441 0.000000 -0.233149
vn 0.159575 0.987084 -0.014200
vn 0.172144 0.984909 0.017926
vn 0.161716 0.986837 0.000000
vn 0.172144 0.984909 -0.017926
vn 0.159575 0.987084 0.014200
vn 0.150964 0.988539 0.000000
vn -0.003459 0.000000 -0.999994
vn -0.003459 0.000000 -0.999994
vn -0.003459 0.000000 -0.999994
vn -0.003459 0.000000 -0.999994
vn -0.003459 0.000000 0.999994
vn -0.003459 0.000000 0.999994
vn -0.003459 0.000000 0.999994
vn -0.003459 0.000000 0.999994
vn 0.000000 -1.000000 0.000000
vn 0.000000 -1.000000 -0.000000
vn 0.000000 -1.000000 -0.000000
vn 0.154206 0.988039 0.000000
vn 0.154206 0.988039 0.000000
vn 0.154206 0.988039 0.000000
vn 0.154206 0.988039 0.000000
vn 0.154206 0.988039 0.000000
vn 0.154206 0.988039 0.000000
vn 0.000000 -1.000000 0.000000
vn 0.000000 -1.000000 0.000000
vn 0.000000 -1.000000 0.000000
vn 0.000000 -1.000000 0.000000
vn 0.000000 -1.000000 0.000000
s 1
g pCylinder3
usemtl initialShadingGroup
f 1/134/1 27/67/2 26/60/3 2/59/4
s 2
f 2/59/5 26/60/6 25/61/7 3/62/8
s 3
f 3/62/9 25/61/10 24/65/11 4/66/12
s 4
f 4/135/13 24/136/14 23/137/15 5/138/16
s 5
f 2/1/17 11/2/18 1/3/19
f 3/4/20 11/2/18 2/1/17
f 4/5/21 11/2/18 3/4/20
f 5/6/22 11/2/18 4/5/21
s 6
f 6/7/23 12/8/24 7/9/25
f 7/9/25 12/8/24 8/10/26
f 8/10/26 12/8/24 9/11/27
f 9/11/27 12/8/24 10/12/28
s 4
f 14/141/29 9/143/30 10/144/31 13/142/32
s 3
f 15/70/33 8/74/34 9/77/35 14/75/36
s 2
f 16/69/37 7/73/38 8/74/39 15/70/40
s 1
f 17/72/41 6/76/42 7/73/43 16/69/44
s 4
f 19/139/45 14/141/29 13/142/32 18/140/46
s 3
f 20/64/47 15/70/33 14/75/36 19/71/48
s 2
f 21/63/49 16/69/37 15/70/40 20/64/50
s 1
f 22/68/51 17/72/41 16/69/44 21/63/52
s 4
f 24/136/14 19/139/45 18/140/46 23/137/15
s 3
f 25/61/10 20/64/47 19/71/48 24/65/11
s 2
f 26/60/6 21/63/49 20/64/50 25/61/7
s 1
f 27/67/2 22/68/51 21/63/52 26/60/3
s 11
f 28/145/53 29/78/54 53/81/55 54/89/56
s 12
f 29/78/57 30/79/58 52/80/59 53/81/60
s 13
f 30/79/61 31/82/62 51/83/63 52/80/64
s 14
f 31/146/65 32/147/66 50/148/67 51/149/68
s 15
f 29/13/69 28/14/70 38/15/71
f 30/16/72 29/13/69 38/15/71
f 31/17/73 30/16/72 38/15/71
f 32/18/74 31/17/73 38/15/71
s 16
f 33/19/75 34/20/76 39/21/77
f 34/20/76 35/22/78 39/21/77
f 35/22/78 36/23/79 39/21/77
f 36/23/79 37/24/80 39/21/77
s 14
f 41/153/81 40/152/82 37/154/83 36/155/84
s 13
f 42/87/85 41/91/86 36/95/87 35/92/88
s 12
f 43/88/89 42/87/90 35/92/91 34/93/92
s 11
f 44/94/93 43/88/94 34/93/95 33/96/96
s 14
f 46/151/97 45/150/98 40/152/82 41/153/81
s 13
f 47/84/99 46/86/100 41/91/86 42/87/85
s 12
f 48/85/101 47/84/102 42/87/90 43/88/89
s 11
f 49/90/103 48/85/104 43/88/94 44/94/93
s 14
f 51/149/68 50/148/67 45/150/98 46/151/97
s 13
f 52/80/64 51/83/63 46/86/100 47/84/99
s 12
f 53/81/60 52/80/59 47/84/102 48/85/101
s 11
f 54/89/56 53/81/55 48/85/104 49/90/103
s off
f 55/156/105 56/157/106 64/158/107 63/159/108
f 56/157/109 57/160/110 65/161/111 64/158/112
f 57/25/113 58/26/114 66/27/115 65/28/116
f 58/26/117 59/29/118 67/30/119 66/27/120
f 59/162/121 60/163/122 68/164/123 67/165/124
f 60/163/125 61/166/126 69/167/127 68/164/128
f 61/37/129 62/38/130 70/39/131 69/40/132
f 62/38/133 55/41/134 63/42/135 70/39/136
f 63/104/137 64/105/138 72/101/139 71/100/140
f 64/105/141 65/109/142 73/106/143 72/101/144
f 65/28/145 66/27/146 74/31/147 73/32/148
f 66/27/149 67/30/150 75/33/151 74/31/152
f 67/117/153 68/115/154 76/112/155 75/114/156
f 68/115/157 69/116/158 77/113/159 76/112/160
f 69/40/161 70/39/162 78/43/163 77/44/164
f 70/39/165 63/42/166 71/45/167 78/43/168
f 71/100/169 72/101/170 80/98/171 79/97/172
f 72/101/173 73/106/174 81/102/175 80/98/176
f 73/32/177 74/31/178 82/34/179 81/35/180
f 74/31/181 75/33/182 83/36/183 82/34/184
f 75/114/185 76/112/186 84/111/187 83/110/188
f 76/112/189 77/113/190 85/108/191 84/111/192
f 77/44/193 78/43/194 86/46/195 85/47/196
f 78/43/197 71/45/198 79/48/199 86/46/200
f 79/97/201 80/98/202 87/99/203
f 80/98/204 81/102/205 87/99/206
f 81/102/207 82/107/208 87/99/209
f 82/107/210 83/110/211 87/99/212
f 83/110/213 84/111/214 87/99/215
f 84/111/216 85/108/217 87/99/218
f 85/108/219 86/103/220 87/99/221
f 86/103/222 79/97/223 87/99/224
f 88/53/225 89/57/226 94/58/227 93/54/228
f 90/55/229 91/49/230 96/52/231 95/56/232
f 91/49/233 92/50/234 97/51/235 96/52/236
f 92/50/237 88/53/238 93/54/239 97/51/240
s 21
f 93/118/241 94/119/242 98/120/243
f 95/124/244 96/123/245 98/120/243
f 96/123/245 97/122/246 98/120/243
f 97/122/246 93/118/241 98/120/243
s off
f 94/168/247 89/169/248 99/170/249 100/171/250
f 90/172/251 95/173/252 102/174/253 101/175/254
s 23
f 103/126/255 91/127/256 90/128/257
s off
f 98/120/258 94/119/259 100/121/260
f 95/124/261 98/120/262 102/125/263
s 23
f 103/126/255 90/128/257 101/130/264
f 88/131/265 103/126/255 89/132/266
f 92/129/267 91/127/256 103/126/255
f 92/129/267 103/126/255 88/131/265
f 89/132/266 103/126/255 99/133/268
